<svg xmlns="http://www.w3.org/2000/svg" xmlns:xlink="http://www.w3.org/1999/xlink" width="2000" zoomAndPan="magnify" viewBox="0 0 1500 1499.999933" height="2000" preserveAspectRatio="xMidYMid meet" version="1.0"><defs><clipPath id="11bfcabb01"><path d="M 308 197 L 962 197 L 962 1478 L 308 1478 Z M 308 197 " clip-rule="nonzero"/></clipPath><clipPath id="9b2b6dff0c"><path d="M 576.757812 130.921875 L 1157.96875 267.316406 L 870.953125 1490.339844 L 289.742188 1353.945312 Z M 576.757812 130.921875 " clip-rule="nonzero"/></clipPath><clipPath id="75f65b2510"><path d="M 576.757812 130.921875 L 1157.96875 267.316406 L 870.953125 1490.339844 L 289.742188 1353.945312 Z M 576.757812 130.921875 " clip-rule="nonzero"/></clipPath><clipPath id="1386922243"><path d="M 905 157 L 1092 157 L 1092 370 L 905 370 Z M 905 157 " clip-rule="nonzero"/></clipPath><clipPath id="252895bfde"><path d="M 959.148438 -15.839844 L 1209.175781 529.582031 L 692.386719 766.484375 L 442.359375 221.058594 Z M 959.148438 -15.839844 " clip-rule="nonzero"/></clipPath><clipPath id="623ea726a8"><path d="M 959.148438 -15.839844 L 1209.175781 529.582031 L 692.386719 766.484375 L 442.359375 221.058594 Z M 959.148438 -15.839844 " clip-rule="nonzero"/></clipPath><clipPath id="66e51d7c7a"><path d="M 959.148438 -15.839844 L 1209.175781 529.582031 L 692.386719 766.484375 L 442.359375 221.058594 Z M 959.148438 -15.839844 " clip-rule="nonzero"/></clipPath><clipPath id="75750aba90"><path d="M 847 7 L 980 7 L 980 323 L 847 323 Z M 847 7 " clip-rule="nonzero"/></clipPath><clipPath id="6a39358f86"><path d="M 959.148438 -15.839844 L 1209.175781 529.582031 L 692.386719 766.484375 L 442.359375 221.058594 Z M 959.148438 -15.839844 " clip-rule="nonzero"/></clipPath><clipPath id="96b997bdbe"><path d="M 959.148438 -15.839844 L 1209.175781 529.582031 L 692.386719 766.484375 L 442.359375 221.058594 Z M 959.148438 -15.839844 " clip-rule="nonzero"/></clipPath><clipPath id="69f30a8236"><path d="M 959.148438 -15.839844 L 1209.175781 529.582031 L 692.386719 766.484375 L 442.359375 221.058594 Z M 959.148438 -15.839844 " clip-rule="nonzero"/></clipPath><clipPath id="2ce9cebbd1"><path d="M 594 160 L 1051 160 L 1051 709 L 594 709 Z M 594 160 " clip-rule="nonzero"/></clipPath><clipPath id="324ced6ba5"><path d="M 959.148438 -15.839844 L 1209.175781 529.582031 L 692.386719 766.484375 L 442.359375 221.058594 Z M 959.148438 -15.839844 " clip-rule="nonzero"/></clipPath><clipPath id="89d1ed5533"><path d="M 959.148438 -15.839844 L 1209.175781 529.582031 L 692.386719 766.484375 L 442.359375 221.058594 Z M 959.148438 -15.839844 " clip-rule="nonzero"/></clipPath><clipPath id="05d2c8827f"><path d="M 959.148438 -15.839844 L 1209.175781 529.582031 L 692.386719 766.484375 L 442.359375 221.058594 Z M 959.148438 -15.839844 " clip-rule="nonzero"/></clipPath><clipPath id="0a82b27e32"><path d="M 626 87 L 940 87 L 940 226 L 626 226 Z M 626 87 " clip-rule="nonzero"/></clipPath><clipPath id="cb892e0473"><path d="M 959.148438 -15.839844 L 1209.175781 529.582031 L 692.386719 766.484375 L 442.359375 221.058594 Z M 959.148438 -15.839844 " clip-rule="nonzero"/></clipPath><clipPath id="b826998ea8"><path d="M 959.148438 -15.839844 L 1209.175781 529.582031 L 692.386719 766.484375 L 442.359375 221.058594 Z M 959.148438 -15.839844 " clip-rule="nonzero"/></clipPath><clipPath id="46b137e38e"><path d="M 959.148438 -15.839844 L 1209.175781 529.582031 L 692.386719 766.484375 L 442.359375 221.058594 Z M 959.148438 -15.839844 " clip-rule="nonzero"/></clipPath></defs><g clip-path="url(#11bfcabb01)"><g clip-path="url(#9b2b6dff0c)"><g clip-path="url(#75f65b2510)"><path fill="#ffcc4d" d="M 818.519531 1390.28125 C 872.605469 1407.175781 871.914062 1428.359375 867.707031 1448.746094 C 859.699219 1487.457031 836.507812 1476.972656 812.945312 1471.441406 L 580.121094 1421.84375 L 349.539062 1362.691406 C 325.972656 1357.160156 300.539062 1356.230469 310.585938 1318 C 315.886719 1297.871094 324.660156 1278.613281 380.648438 1287.523438 C 380.648438 1287.523438 324.414062 1207.058594 460.824219 1130.140625 C 471.207031 1124.277344 478.53125 1114.210938 481.257812 1102.589844 L 486.152344 1081.734375 L 469.679688 1077.867188 C 454.921875 1074.40625 442.433594 1063.519531 438.714844 1048.808594 C 436.078125 1038.453125 437.574219 1026.148438 450.289062 1014.480469 C 460.496094 1005.113281 474.824219 1001.675781 488.3125 1004.839844 L 520.9375 1012.496094 C 520.9375 1012.496094 648.558594 906.128906 648.808594 732.878906 L 586.347656 718.21875 C 565.34375 713.289062 552.3125 690.960938 560.269531 670.929688 C 560.652344 669.96875 561.089844 668.996094 561.558594 668.003906 C 568.8125 653.085938 585.96875 645.769531 602.09375 649.554688 L 613.242188 652.171875 C 613.242188 652.171875 577.03125 608.332031 638.085938 599.109375 C 638.085938 599.109375 629.769531 588.914062 633.558594 577.359375 C 636.726562 567.652344 647.515625 562.621094 657.445312 564.953125 L 669.042969 567.675781 C 672.925781 568.585938 676.605469 569.449219 680.214844 570.296875 C 633.867188 512.371094 630.75 424.183594 688.160156 363.035156 L 741.46875 306.261719 C 756.246094 290.507812 773.886719 280.234375 792.433594 274.925781 C 788.515625 264.765625 787.390625 253.789062 789.949219 242.886719 C 797.582031 210.46875 834.109375 191.316406 871.5625 200.105469 C 909.011719 208.894531 933.230469 242.300781 925.621094 274.726562 C 922.691406 287.21875 915.421875 297.722656 905.492188 305.449219 C 917.195312 317.671875 926.425781 332.941406 931.859375 350.964844 L 954.351562 425.507812 C 978.589844 505.8125 936.542969 583.402344 869.265625 614.664062 C 872.875 615.507812 876.558594 616.375 880.4375 617.285156 L 892.035156 620.007812 C 901.964844 622.335938 909.390625 631.640625 907.910156 641.742188 C 906.164062 653.777344 894.152344 659.203125 894.152344 659.203125 C 944.730469 694.625 892.824219 717.78125 892.824219 717.78125 L 903.972656 720.398438 C 920.121094 724.1875 932.203125 738.390625 932.070312 754.953125 C 932.074219 756.058594 932.011719 757.09375 931.921875 758.148438 C 930.136719 779.628906 908.53125 793.828125 887.527344 788.898438 L 825.09375 774.246094 C 748.269531 929.53125 815.25 1081.566406 815.25 1081.566406 L 847.875 1089.222656 C 861.359375 1092.386719 872.664062 1101.839844 877.613281 1114.765625 C 883.804688 1130.894531 879.675781 1142.554688 872.707031 1150.660156 C 862.835938 1162.179688 846.808594 1166.371094 832.050781 1162.910156 L 815.578125 1159.042969 L 810.683594 1179.898438 C 807.960938 1191.492188 810.039062 1203.796875 816.726562 1213.664062 C 904.679688 1343.234375 818.519531 1390.28125 818.519531 1390.28125 Z M 818.519531 1390.28125 " fill-opacity="1" fill-rule="nonzero"/></g></g></g><g clip-path="url(#1386922243)"><g clip-path="url(#252895bfde)"><g clip-path="url(#623ea726a8)"><g clip-path="url(#66e51d7c7a)"><path fill="#5c913b" d="M 1006.121094 179.851562 C 1066.585938 263.808594 1043.285156 308.488281 1081.011719 346.378906 C 1118.734375 384.265625 1041.449219 366.117188 1026.175781 358.675781 C 1010.894531 351.203125 904.53125 274.140625 905.386719 219.1875 C 906.242188 164.234375 972.730469 133.480469 1006.121094 179.851562 Z M 1006.121094 179.851562 " fill-opacity="1" fill-rule="nonzero"/></g></g></g></g><g clip-path="url(#75750aba90)"><g clip-path="url(#6a39358f86)"><g clip-path="url(#96b997bdbe)"><g clip-path="url(#69f30a8236)"><path fill="#77b255" d="M 849.25 313.734375 C 847.265625 309.40625 847.265625 304.21875 849.71875 299.714844 C 858.28125 283.953125 869.027344 268.324219 880.421875 251.777344 C 919.671875 194.699219 964.179688 129.988281 941.949219 26.214844 C 940.140625 17.757812 945.527344 9.429688 953.988281 7.617188 C 962.464844 5.800781 970.765625 11.199219 972.585938 19.648438 C 997.660156 136.613281 946.964844 210.3125 906.230469 269.535156 C 895.328125 285.390625 885.035156 300.347656 877.253906 314.667969 C 873.128906 322.28125 863.609375 325.09375 856.007812 320.960938 C 852.910156 319.277344 850.613281 316.710938 849.25 313.734375 Z M 849.25 313.734375 " fill-opacity="1" fill-rule="nonzero"/></g></g></g></g><g clip-path="url(#2ce9cebbd1)"><g clip-path="url(#324ced6ba5)"><g clip-path="url(#89d1ed5533)"><g clip-path="url(#05d2c8827f)"><path fill="#ffcc4d" d="M 753.964844 690 C 754.21875 689.917969 754.34375 689.777344 754.558594 689.679688 C 848.660156 694.347656 987.113281 628.6875 1033.367188 504.203125 C 1078.117188 383.722656 1026.980469 271.382812 968.785156 210.390625 C 949.734375 191.914062 948.804688 169.28125 930.136719 162.363281 C 911.835938 155.570312 889.113281 175.121094 871.074219 177.132812 C 776.289062 165.972656 663.316406 213.691406 616.316406 340.242188 C 578.027344 443.304688 586.996094 533.5625 677.621094 656.460938 C 677.660156 656.476562 677.667969 656.527344 677.699219 656.5625 C 688.300781 671.488281 689.507812 701.988281 702.320312 706.730469 C 724.855469 715.097656 737.925781 695.734375 753.964844 690 Z M 753.964844 690 " fill-opacity="1" fill-rule="nonzero"/></g></g></g></g><g clip-path="url(#0a82b27e32)"><g clip-path="url(#cb892e0473)"><g clip-path="url(#b826998ea8)"><g clip-path="url(#46b137e38e)"><path fill="#77b255" d="M 939.042969 155.507812 C 939.042969 155.507812 919.570312 90.847656 828.769531 87.886719 C 737.980469 84.921875 702.589844 155.761719 650.429688 174.640625 C 598.234375 193.515625 642.632812 205.199219 673.878906 209.058594 C 705.121094 212.917969 771.21875 237.332031 838.144531 218.855469 C 905.09375 200.347656 929.675781 175.6875 939.042969 155.507812 Z M 939.042969 155.507812 " fill-opacity="1" fill-rule="nonzero"/></g></g></g></g><path stroke-linecap="round" transform="matrix(0.730448, 0.170136, -0.170136, 0.730448, 636.837986, 597.422497)" fill="none" stroke-linejoin="miter" d="M 2.460729 2.426083 C 119.612608 31.028406 236.768946 31.019236 353.92585 2.404827 " stroke="#000000" stroke-width="4" stroke-opacity="1" stroke-miterlimit="4"/><path stroke-linecap="round" transform="matrix(0.730426, 0.170229, -0.170229, 0.730426, 612.561077, 651.022436)" fill="none" stroke-linejoin="miter" d="M 2.447275 2.415155 C 129.44294 32.516909 256.438107 32.510059 383.437849 2.393423 " stroke="#000000" stroke-width="4" stroke-opacity="1" stroke-miterlimit="4"/><path stroke-linecap="round" transform="matrix(0.730337, 0.170612, -0.170612, 0.730337, 648.092738, 732.033373)" fill="none" stroke-linejoin="miter" d="M 2.415776 2.390506 C 81.806937 19.733026 161.199007 19.724602 240.586914 2.366419 " stroke="#000000" stroke-width="4" stroke-opacity="1" stroke-miterlimit="4"/><path stroke-linecap="round" transform="matrix(0.729933, 0.17233, -0.17233, 0.729933, 521.0625, 1010.443477)" fill="none" stroke-linejoin="miter" d="M 2.211497 2.204325 C 135.587768 16.690458 268.968628 16.68895 402.342743 2.197126 " stroke="#000000" stroke-width="4" stroke-opacity="1" stroke-miterlimit="4"/><path stroke-linecap="round" transform="matrix(0.729957, 0.172227, -0.172227, 0.729957, 485.852464, 1080.920047)" fill="none" stroke-linejoin="miter" d="M 2.269992 2.254967 C 151.432229 22.731397 300.599799 22.726989 449.762563 2.244137 " stroke="#000000" stroke-width="4" stroke-opacity="1" stroke-miterlimit="4"/><path stroke-linecap="round" transform="matrix(0.730168, 0.17133, -0.17133, 0.730168, 379.187842, 1286.306125)" fill="none" stroke-linejoin="miter" d="M 2.402866 2.376597 C 202.108509 44.569362 401.814768 44.56281 601.521642 2.356941 " stroke="#000000" stroke-width="4" stroke-opacity="1" stroke-miterlimit="4"/></svg>